<svg xmlns="http://www.w3.org/2000/svg" viewBox="0 0 800 110">
  <defs>
    <path id="leaf-d" d="M0,0 C6,-22 6,-44 0,-64 C-6,-44 -6,-22 0,0 Z"/>
    <ellipse id="petal-d" cx="0" cy="-10" rx="4" ry="9"/>
    <g id="flower-d">
      <use href="#petal-d" fill="#b34a35" transform="rotate(0)"/>
      <use href="#petal-d" fill="#9c3d2c" transform="rotate(60)"/>
      <use href="#petal-d" fill="#b34a35" transform="rotate(120)"/>
      <use href="#petal-d" fill="#9c3d2c" transform="rotate(180)"/>
      <use href="#petal-d" fill="#b34a35" transform="rotate(240)"/>
      <use href="#petal-d" fill="#9c3d2c" transform="rotate(300)"/>
      <circle r="5" fill="#5c3a2a"/>
    </g>
  </defs>

  <path d="M20,55 C 150,30 250,75 400,50 C 550,25 650,70 780,45"
        fill="none" stroke="#8a7050" stroke-width="1.5"/>

  <use href="#leaf-d" fill="#8b8a5c" transform="translate(70 47) rotate(-15)"/>
  <use href="#leaf-d" fill="#7a5c52" transform="translate(115 40) rotate(160)"/>
  <use href="#leaf-d" fill="#8b8a5c" transform="translate(190 60) rotate(-10)"/>
  <use href="#leaf-d" fill="#7a5c52" transform="translate(255 62) rotate(150)"/>
  <use href="#leaf-d" fill="#8b8a5c" transform="translate(330 52) rotate(-20)"/>
  <use href="#leaf-d" fill="#7a5c52" transform="translate(400 50) rotate(170)"/>
  <use href="#leaf-d" fill="#8b8a5c" transform="translate(470 55) rotate(-15)"/>
  <use href="#leaf-d" fill="#7a5c52" transform="translate(540 45) rotate(155)"/>
  <use href="#leaf-d" fill="#8b8a5c" transform="translate(610 62) rotate(-10)"/>
  <use href="#leaf-d" fill="#7a5c52" transform="translate(680 50) rotate(165)"/>
  <use href="#leaf-d" fill="#8b8a5c" transform="translate(735 47) rotate(-20)"/>

  <circle cx="145" cy="35" r="3" fill="#6b5b58"/>
  <circle cx="158" cy="30" r="2.5" fill="#7a5c52"/>
  <circle cx="600" cy="35" r="3" fill="#6b5b58"/>
  <circle cx="613" cy="30" r="2.5" fill="#7a5c52"/>

  <use href="#flower-d" transform="translate(400 50)"/>
</svg>
